<svg xmlns="http://www.w3.org/2000/svg" width="1440" height="560" preserveAspectRatio="none" viewBox="0 0 1440 560"><g fill="none" stroke="rgba(59, 130, 246, 1)" stroke-width="2" mask="url(&quot;#a&quot;)"><path d="M860.01 616.64c91.78-19.8 40.46-246.14 271.15-259.86 230.68-13.72 399.52-176.9 542.29-179.2"/><path d="M823.62 579.94c97.94-29.25 38.93-292.9 269.48-307.5 230.54-14.6 399.74-138.86 538.95-140"/><path d="M315.86 599.65c134.86-10.62 225.61-278.81 462.98-280.12s231.49 70 462.98 70 345.92-69.8 462.98-70"/><path d="M310.82 629.76c181.83-8.59 324.29-321.68 653.1-321.95 328.82-.27 484.52 166.66 653.11 168"/><path d="M331.54 564.12c146.65-1.2 269.53-143.11 567.75-147.59 298.23-4.48 415.73-214.68 567.76-218.4"/></g><defs><mask id="a"><path fill="#fff" d="M0 0h1440v560H0z"/></mask></defs></svg>